<?xml version="1.0" encoding="UTF-8"?>
<svg xmlns="http://www.w3.org/2000/svg" version="1.1" viewBox="0 0 128 128">
  <!-- Generator: Adobe Illustrator 30.0.0, SVG Export Plug-In . SVG Version: 2.1.1 Build 123)  -->
  <defs>
    <style>
      .st0, .st1 {
        fill: #fff;
      }

      .st0, .st2 {
        display: none;
      }

      .st3 {
        fill: #4762b2;
      }

      .st4 {
        fill: #b6c0e0;
      }
    </style>
  </defs>
  <g id="Layer_2">
    <rect class="st3" y=".13" width="128" height="125" rx="22" ry="22"/>
    <g>
      <path class="st4" d="M27,85.19V28.45h10.35c5.93,0,10.75.63,14.3,2.77,4.27,2.53,6.8,6.95,6.8,11.85,0,4.5-2.05,7.9-5.93,10.91,6.64,3.16,9.96,7.74,9.96,14.62,0,4.66-1.58,8.53-4.9,11.7-3.79,3.71-7.9,4.9-13.67,4.9h-16.91ZM37.83,38.72v11.93h2.37c5.06,0,7.67-2.21,7.67-6.16,0-3.64-2.45-5.77-7.27-5.77h-2.77ZM37.83,60.3v14.62h3.64c6.8,0,10.43-1.9,10.43-6.72s-3.79-7.9-11.38-7.9h-2.69Z"/>
      <path class="st4" d="M107.53,77.52c-4.5,5.85-10.83,8.77-19.05,8.77-14.3,0-23.55-9.72-23.55-21.97s9.8-22.21,23.71-22.21c8.22,0,15.17,3.4,19.36,9.56l-8.77,4.82c-3-3.16-5.93-4.74-10.51-4.74-8.06,0-13.2,5.45-13.2,12.72s4.98,12.17,12.72,12.17c4.66,0,8.38-1.58,10.98-4.82l8.3,5.69Z"/>
    </g>
  </g>
  <g id="Layer_1" class="st2">
    <path d="M109,0c10.06,2.91,15.33,8.38,19,18v88c-3.03,10.59-10.17,17.9-21.46,19.04-27.2-2.33-59.33,3.03-85.93-.15-10.85-1.3-16.85-8.24-20.61-17.89V19C2.91,8.94,8.38,3.67,18,0h91ZM50.5,30c-7.41-.78-15.96.57-23.5,0v56h25.5c.46,0,7.3-2.33,8.2-2.8,9.53-4.94,11.1-23.66-.7-26.22.51-1.66,2.61-1.74,4.01-3.47,5.01-6.16,4.22-16.9-3.32-20.72-2.07-1.05-7.95-2.57-10.2-2.8ZM108,45.02c-23.45-9.23-41.1,6-33.07,30.55,3.97,12.12,20.49,13.51,30.61,8.47l.45-11.04c-25.93,18.11-28.11-32.25-2.48-18.03l4.49-9.95Z"/>
    <path class="st0" d="M128,106v20H0v-19c3.77,9.65,9.76,16.59,20.61,17.89,26.6,3.18,58.73-2.18,85.93.15,11.29-1.14,18.43-8.45,21.46-19.04Z"/>
    <path class="st0" d="M18,0C8.38,3.67,2.91,8.94,0,19V0h18Z"/>
    <path class="st0" d="M109,0h19v18c-3.67-9.62-8.94-15.09-19-18Z"/>
    <path class="st0" d="M50.5,30c2.25.24,8.13,1.75,10.2,2.8,7.54,3.81,8.33,14.56,3.32,20.72-1.4,1.72-3.5,1.8-4.01,3.47,11.8,2.56,10.23,21.28.7,26.22-.91.47-7.75,2.8-8.2,2.8h-25.5V30c7.54.57,16.09-.78,23.5,0ZM38.99,52.01c20.51,3.05,20.47-14.85,0-12.01v12.01ZM39,76c6,.22,17.1,1.16,16.89-7.53-.18-7.77-11.56-6.67-16.89-6.47v14Z"/>
    <path class="st1" d="M108,45.02l-4.49,9.95c-25.63-14.22-23.45,36.14,2.48,18.03l-.45,11.04c-10.12,5.03-26.64,3.65-30.61-8.47-8.03-24.55,9.63-39.78,33.07-30.55Z"/>
    <path d="M39,76v-14c5.33-.2,16.71-1.3,16.89,6.47.21,8.69-10.89,7.75-16.89,7.53Z"/>
    <path d="M38.99,52.01v-12.01c20.47-2.84,20.51,15.06,0,12.01Z"/>
  </g>
</svg>