<?xml version="1.0" encoding="UTF-8"?>
<svg id="Layer_1" xmlns="http://www.w3.org/2000/svg" version="1.1" viewBox="0 0 120 32">
  <!-- Generator: Adobe Illustrator 30.0.0, SVG Export Plug-In . SVG Version: 2.1.1 Build 123)  -->
  <defs>
    <style>
      .st0, .st1 {
        fill: #dedc00;
      }

      .st2, .st3 {
        isolation: isolate;
      }

      .st3 {
        font-family: BungeeShade-Regular, 'Bungee Shade';
        font-size: 24px;
      }

      .st3, .st1 {
        display: none;
      }
    </style>
  </defs>
  <text class="st3" transform="translate(0 24)"><tspan x="0" y="0">Boring</tspan></text>
  <rect class="st1" width="122.24" height="32"/>
  <g class="st2">
    <path d="M12.94,17.09h-3.12v2.83h3.12c.6,0,.91-.32.91-.96v-.94c0-.62-.31-.93-.91-.93ZM11.86,10.8h-2.04v2.59h2.04c.6,0,.91-.32.91-.96v-.67c0-.64-.31-.96-.91-.96ZM12.94,17.09h-3.12v2.83h3.12c.6,0,.91-.32.91-.96v-.94c0-.62-.31-.93-.91-.93ZM11.86,10.8h-2.04v2.59h2.04c.6,0,.91-.32.91-.96v-.67c0-.64-.31-.96-.91-.96ZM11.86,10.8h-2.04v2.59h2.04c.6,0,.91-.32.91-.96v-.67c0-.64-.31-.96-.91-.96ZM12.94,17.09h-3.12v2.83h3.12c.6,0,.91-.32.91-.96v-.94c0-.62-.31-.93-.91-.93ZM12.94,17.09h-3.12v2.83h3.12c.6,0,.91-.32.91-.96v-.94c0-.62-.31-.93-.91-.93ZM11.86,10.8h-2.04v2.59h2.04c.6,0,.91-.32.91-.96v-.67c0-.64-.31-.96-.91-.96ZM16.45,16.49c-.15-.42-.45-.75-.89-.99s-1.1-.36-2-.36c.69-.17,1.12-.46,1.28-.86.17-.4.26-.84.26-1.32v-1.54c0-.46-.08-.88-.23-1.27-.15-.38-.45-.69-.9-.92-.45-.23-1.12-.35-2.02-.35h-4.87v12.96h6.46c.89,0,1.56-.1,2.01-.3.45-.2.75-.48.9-.85.15-.37.23-.79.23-1.25v-1.54c0-.52-.08-1-.23-1.41ZM7.32,9.12h4.63c.82,0,1.43.1,1.85.3s.7.48.84.83.22.74.22,1.17v1.54c0,.38-.06.74-.18,1.07-.12.33-.39.59-.8.8-.4.21-1.05.31-1.93.31h-4.63v-6.02ZM16.44,19.44c0,.43-.08.81-.23,1.14-.15.33-.43.58-.85.76-.42.17-1.02.26-1.82.26h-6.22v-6.22h6.24c.82,0,1.43.12,1.84.34.4.22.68.52.82.9.15.38.22.8.22,1.28v1.54ZM12.94,17.09h-3.12v2.83h3.12c.6,0,.91-.32.91-.96v-.94c0-.62-.31-.93-.91-.93ZM12.77,12.43v-.67c0-.64-.31-.96-.91-.96h-2.04v2.59h2.04c.6,0,.91-.32.91-.96ZM11.86,10.8h-2.04v2.59h2.04c.6,0,.91-.32.91-.96v-.67c0-.64-.31-.96-.91-.96ZM12.94,17.09h-3.12v2.83h3.12c.6,0,.91-.32.91-.96v-.94c0-.62-.31-.93-.91-.93ZM12.94,17.09h-3.12v2.83h3.12c.6,0,.91-.32.91-.96v-.94c0-.62-.31-.93-.91-.93ZM11.86,10.8h-2.04v2.59h2.04c.6,0,.91-.32.91-.96v-.67c0-.64-.31-.96-.91-.96ZM11.86,10.8h-2.04v2.59h2.04c.6,0,.91-.32.91-.96v-.67c0-.64-.31-.96-.91-.96ZM12.94,17.09h-3.12v2.83h3.12c.6,0,.91-.32.91-.96v-.94c0-.62-.31-.93-.91-.93ZM12.94,17.09h-3.12v2.83h3.12c.6,0,.91-.32.91-.96v-.94c0-.62-.31-.93-.91-.93ZM11.86,10.8h-2.04v2.59h2.04c.6,0,.91-.32.91-.96v-.67c0-.64-.31-.96-.91-.96ZM16.45,16.49c-.15-.42-.45-.75-.89-.99s-1.1-.36-2-.36c.69-.17,1.12-.46,1.28-.86.17-.4.26-.84.26-1.32v-1.54c0-.46-.08-.88-.23-1.27-.15-.38-.45-.69-.9-.92-.45-.23-1.12-.35-2.02-.35h-4.87v12.96h6.46c.89,0,1.56-.1,2.01-.3.45-.2.75-.48.9-.85.15-.37.23-.79.23-1.25v-1.54c0-.52-.08-1-.23-1.41ZM7.32,9.12h4.63c.82,0,1.43.1,1.85.3s.7.48.84.83.22.74.22,1.17v1.54c0,.38-.06.74-.18,1.07-.12.33-.39.59-.8.8-.4.21-1.05.31-1.93.31h-4.63v-6.02ZM16.44,19.44c0,.43-.08.81-.23,1.14-.15.33-.43.58-.85.76-.42.17-1.02.26-1.82.26h-6.22v-6.22h6.24c.82,0,1.43.12,1.84.34.4.22.68.52.82.9.15.38.22.8.22,1.28v1.54ZM12.94,17.09h-3.12v2.83h3.12c.6,0,.91-.32.91-.96v-.94c0-.62-.31-.93-.91-.93ZM12.77,12.43v-.67c0-.64-.31-.96-.91-.96h-2.04v2.59h2.04c.6,0,.91-.32.91-.96ZM11.86,10.8h-2.04v2.59h2.04c.6,0,.91-.32.91-.96v-.67c0-.64-.31-.96-.91-.96ZM12.94,17.09h-3.12v2.83h3.12c.6,0,.91-.32.91-.96v-.94c0-.62-.31-.93-.91-.93ZM12.94,17.09h-3.12v2.83h3.12c.6,0,.91-.32.91-.96v-.94c0-.62-.31-.93-.91-.93ZM11.86,10.8h-2.04v2.59h2.04c.6,0,.91-.32.91-.96v-.67c0-.64-.31-.96-.91-.96ZM11.86,10.8h-2.04v2.59h2.04c.6,0,.91-.32.91-.96v-.67c0-.64-.31-.96-.91-.96ZM12.94,17.09h-3.12v2.83h3.12c.6,0,.91-.32.91-.96v-.94c0-.62-.31-.93-.91-.93ZM12.94,17.09h-3.12v2.83h3.12c.6,0,.91-.32.91-.96v-.94c0-.62-.31-.93-.91-.93ZM11.86,10.8h-2.04v2.59h2.04c.6,0,.91-.32.91-.96v-.67c0-.64-.31-.96-.91-.96ZM16.45,16.49c-.15-.42-.45-.75-.89-.99s-1.1-.36-2-.36c.69-.17,1.12-.46,1.28-.86.17-.4.26-.84.26-1.32v-1.54c0-.46-.08-.88-.23-1.27-.15-.38-.45-.69-.9-.92-.45-.23-1.12-.35-2.02-.35h-4.87v12.96h6.46c.89,0,1.56-.1,2.01-.3.45-.2.75-.48.9-.85.15-.37.23-.79.23-1.25v-1.54c0-.52-.08-1-.23-1.41ZM7.32,9.12h4.63c.82,0,1.43.1,1.85.3s.7.48.84.83.22.74.22,1.17v1.54c0,.38-.06.74-.18,1.07-.12.33-.39.59-.8.8-.4.21-1.05.31-1.93.31h-4.63v-6.02ZM16.44,19.44c0,.43-.08.81-.23,1.14-.15.33-.43.58-.85.76-.42.17-1.02.26-1.82.26h-6.22v-6.22h6.24c.82,0,1.43.12,1.84.34.4.22.68.52.82.9.15.38.22.8.22,1.28v1.54ZM12.94,17.09h-3.12v2.83h3.12c.6,0,.91-.32.91-.96v-.94c0-.62-.31-.93-.91-.93ZM12.77,12.43v-.67c0-.64-.31-.96-.91-.96h-2.04v2.59h2.04c.6,0,.91-.32.91-.96ZM16.45,16.49c-.15-.42-.45-.75-.89-.99s-1.1-.36-2-.36c.69-.17,1.12-.46,1.28-.86.17-.4.26-.84.26-1.32v-1.54c0-.46-.08-.88-.23-1.27-.15-.38-.45-.69-.9-.92-.45-.23-1.12-.35-2.02-.35h-4.87v12.96h6.46c.89,0,1.56-.1,2.01-.3.45-.2.75-.48.9-.85.15-.37.23-.79.23-1.25v-1.54c0-.52-.08-1-.23-1.41ZM7.32,9.12h4.63c.82,0,1.43.1,1.85.3s.7.48.84.83.22.74.22,1.17v1.54c0,.38-.06.74-.18,1.07-.12.33-.39.59-.8.8-.4.21-1.05.31-1.93.31h-4.63v-6.02ZM16.44,19.44c0,.43-.08.81-.23,1.14-.15.33-.43.58-.85.76-.42.17-1.02.26-1.82.26h-6.22v-6.22h6.24c.82,0,1.43.12,1.84.34.4.22.68.52.82.9.15.38.22.8.22,1.28v1.54ZM12.94,17.09h-3.12v2.83h3.12c.6,0,.91-.32.91-.96v-.94c0-.62-.31-.93-.91-.93ZM12.77,12.43v-.67c0-.64-.31-.96-.91-.96h-2.04v2.59h2.04c.6,0,.91-.32.91-.96ZM18.76,15.22c-.43-.63-1.08-1.04-1.96-1.23l.07-.05c.61-.48.91-1.28.91-2.4v-1.15c0-1.33-.38-2.31-1.16-2.95-.78-.64-2-.96-3.68-.96h-7.66c-.34,0-.59.07-.77.22l-3.09,2.61c-.23.19-.34.49-.34.89v15.55c0,.74.37,1.11,1.1,1.11h9.22c1.65,0,2.86-.34,3.65-1.01l3.09-2.62c.84-.69,1.25-1.74,1.25-3.17v-2.2c0-1.14-.21-2.02-.63-2.64ZM19.15,20.06c0,1.35-.37,2.34-1.13,2.98-.75.64-1.92.96-3.52.96H5.28c-.58,0-.86-.29-.86-.86V7.58c0-.57.28-.86.86-.86h7.66c1.56,0,2.72.3,3.48.89.75.59,1.12,1.52,1.12,2.78v1.15c0,1.33-.47,2.2-1.41,2.6,1.04.09,1.8.44,2.29,1.04.49.6.73,1.49.73,2.68v2.2ZM15.56,15.5c-.44-.24-1.1-.36-2-.36.69-.17,1.12-.46,1.28-.86.17-.4.26-.84.26-1.32v-1.54c0-.46-.08-.88-.23-1.27-.15-.38-.45-.69-.9-.92-.45-.23-1.12-.35-2.02-.35h-4.87v12.96h6.46c.89,0,1.56-.1,2.01-.3.45-.2.75-.48.9-.85.15-.37.23-.79.23-1.25v-1.54c0-.52-.08-1-.23-1.41-.15-.42-.45-.75-.89-.99ZM7.32,9.12h4.63c.82,0,1.43.1,1.85.3s.7.48.84.83.22.74.22,1.17v1.54c0,.38-.06.74-.18,1.07-.12.33-.39.59-.8.8-.4.21-1.05.31-1.93.31h-4.63v-6.02ZM16.44,19.44c0,.43-.08.81-.23,1.14-.15.33-.43.58-.85.76-.42.17-1.02.26-1.82.26h-6.22v-6.22h6.24c.82,0,1.43.12,1.84.34.4.22.68.52.82.9.15.38.22.8.22,1.28v1.54ZM12.94,17.09h-3.12v2.83h3.12c.6,0,.91-.32.91-.96v-.94c0-.62-.31-.93-.91-.93ZM12.77,12.43v-.67c0-.64-.31-.96-.91-.96h-2.04v2.59h2.04c.6,0,.91-.32.91-.96ZM11.86,10.8h-2.04v2.59h2.04c.6,0,.91-.32.91-.96v-.67c0-.64-.31-.96-.91-.96ZM12.94,17.09h-3.12v2.83h3.12c.6,0,.91-.32.91-.96v-.94c0-.62-.31-.93-.91-.93ZM12.94,17.09h-3.12v2.83h3.12c.6,0,.91-.32.91-.96v-.94c0-.62-.31-.93-.91-.93ZM11.86,10.8h-2.04v2.59h2.04c.6,0,.91-.32.91-.96v-.67c0-.64-.31-.96-.91-.96ZM16.45,16.49c-.15-.42-.45-.75-.89-.99s-1.1-.36-2-.36c.69-.17,1.12-.46,1.28-.86.17-.4.26-.84.26-1.32v-1.54c0-.46-.08-.88-.23-1.27-.15-.38-.45-.69-.9-.92-.45-.23-1.12-.35-2.02-.35h-4.87v12.96h6.46c.89,0,1.56-.1,2.01-.3.45-.2.75-.48.9-.85.15-.37.23-.79.23-1.25v-1.54c0-.52-.08-1-.23-1.41ZM7.32,9.12h4.63c.82,0,1.43.1,1.85.3s.7.48.84.83.22.74.22,1.17v1.54c0,.38-.06.74-.18,1.07-.12.33-.39.59-.8.8-.4.21-1.05.31-1.93.31h-4.63v-6.02ZM16.44,19.44c0,.43-.08.81-.23,1.14-.15.33-.43.58-.85.76-.42.17-1.02.26-1.82.26h-6.22v-6.22h6.24c.82,0,1.43.12,1.84.34.4.22.68.52.82.9.15.38.22.8.22,1.28v1.54ZM12.94,17.09h-3.12v2.83h3.12c.6,0,.91-.32.91-.96v-.94c0-.62-.31-.93-.91-.93ZM12.77,12.43v-.67c0-.64-.31-.96-.91-.96h-2.04v2.59h2.04c.6,0,.91-.32.91-.96ZM11.86,10.8h-2.04v2.59h2.04c.6,0,.91-.32.91-.96v-.67c0-.64-.31-.96-.91-.96ZM12.94,17.09h-3.12v2.83h3.12c.6,0,.91-.32.91-.96v-.94c0-.62-.31-.93-.91-.93ZM12.94,17.09h-3.12v2.83h3.12c.6,0,.91-.32.91-.96v-.94c0-.62-.31-.93-.91-.93ZM11.86,10.8h-2.04v2.59h2.04c.6,0,.91-.32.91-.96v-.67c0-.64-.31-.96-.91-.96ZM16.45,16.49c-.15-.42-.45-.75-.89-.99s-1.1-.36-2-.36c.69-.17,1.12-.46,1.28-.86.17-.4.26-.84.26-1.32v-1.54c0-.46-.08-.88-.23-1.27-.15-.38-.45-.69-.9-.92-.45-.23-1.12-.35-2.02-.35h-4.87v12.96h6.46c.89,0,1.56-.1,2.01-.3.45-.2.75-.48.9-.85.15-.37.23-.79.23-1.25v-1.54c0-.52-.08-1-.23-1.41ZM7.32,9.12h4.63c.82,0,1.43.1,1.85.3s.7.48.84.83.22.74.22,1.17v1.54c0,.38-.06.74-.18,1.07-.12.33-.39.59-.8.8-.4.21-1.05.31-1.93.31h-4.63v-6.02ZM16.44,19.44c0,.43-.08.81-.23,1.14-.15.33-.43.58-.85.76-.42.17-1.02.26-1.82.26h-6.22v-6.22h6.24c.82,0,1.43.12,1.84.34.4.22.68.52.82.9.15.38.22.8.22,1.28v1.54ZM12.94,17.09h-3.12v2.83h3.12c.6,0,.91-.32.91-.96v-.94c0-.62-.31-.93-.91-.93ZM12.77,12.43v-.67c0-.64-.31-.96-.91-.96h-2.04v2.59h2.04c.6,0,.91-.32.91-.96ZM11.86,10.8h-2.04v2.59h2.04c.6,0,.91-.32.91-.96v-.67c0-.64-.31-.96-.91-.96ZM12.94,17.09h-3.12v2.83h3.12c.6,0,.91-.32.91-.96v-.94c0-.62-.31-.93-.91-.93ZM12.94,17.09h-3.12v2.83h3.12c.6,0,.91-.32.91-.96v-.94c0-.62-.31-.93-.91-.93ZM11.86,10.8h-2.04v2.59h2.04c.6,0,.91-.32.91-.96v-.67c0-.64-.31-.96-.91-.96Z"/>
    <path class="st0" d="M18.42,15.18c-.49-.6-1.25-.95-2.29-1.04.94-.4,1.41-1.27,1.41-2.6v-1.15c0-1.26-.37-2.19-1.12-2.78-.76-.59-1.92-.89-3.48-.89h-7.66c-.58,0-.86.29-.86.86v15.56c0,.57.28.86.86.86h9.22c1.6,0,2.77-.32,3.52-.96.76-.64,1.13-1.63,1.13-2.98v-2.2c0-1.19-.24-2.08-.73-2.68ZM16.68,19.44c0,.46-.08.88-.23,1.25-.15.37-.45.65-.9.85-.45.2-1.12.3-2.01.3h-6.46v-12.96h4.87c.9,0,1.57.12,2.02.35.45.23.75.54.9.92.15.39.23.81.23,1.27v1.54c0,.48-.09.92-.26,1.32-.16.4-.59.69-1.28.86.9,0,1.56.12,2,.36s.74.57.89.99c.15.41.23.89.23,1.41v1.54Z"/>
    <path class="st0" d="M14.64,10.25c-.14-.35-.42-.63-.84-.83s-1.03-.3-1.85-.3h-4.63v6.02h4.63c.88,0,1.53-.1,1.93-.31.41-.21.68-.47.8-.8.12-.33.18-.69.18-1.07v-1.54c0-.43-.08-.82-.22-1.17ZM12.77,12.43c0,.64-.31.96-.91.96h-2.04v-2.59h2.04c.6,0,.91.32.91.96v.67Z"/>
    <path class="st0" d="M16.22,16.62c-.14-.38-.42-.68-.82-.9-.41-.22-1.02-.34-1.84-.34h-6.24v6.22h6.22c.8,0,1.4-.09,1.82-.26.42-.18.7-.43.85-.76.15-.33.23-.71.23-1.14v-1.54c0-.48-.07-.9-.22-1.28ZM13.85,18.96c0,.64-.31.96-.91.96h-3.12v-2.83h3.12c.6,0,.91.31.91.93v.94Z"/>
    <path d="M33.08,11.35c-.23-.21-.78-.31-1.66-.31s-1.42.1-1.66.31c-.24.21-.36.47-.36.79v6.46c0,.32.12.59.36.8.24.22.79.33,1.66.33s1.43-.11,1.66-.33c.24-.21.35-.48.35-.8v-6.46c0-.32-.11-.58-.35-.79ZM30.1,19.32c-.18-.08-.3-.18-.36-.3-.07-.12-.1-.26-.1-.42v-4.54c.18.07.3.16.36.28.06.12.1.26.1.42v4.56ZM33.08,11.35c-.23-.21-.78-.31-1.66-.31s-1.42.1-1.66.31c-.24.21-.36.47-.36.79v6.46c0,.32.12.59.36.8.24.22.79.33,1.66.33s1.43-.11,1.66-.33c.24-.21.35-.48.35-.8v-6.46c0-.32-.11-.58-.35-.79ZM30.1,19.32c-.18-.08-.3-.18-.36-.3-.07-.12-.1-.26-.1-.42v-4.54c.18.07.3.16.36.28.06.12.1.26.1.42v4.56ZM35.81,10.13c-.29-.48-.79-.86-1.49-1.13s-1.69-.41-2.95-.41-2.23.14-2.93.41-1.2.65-1.48,1.13c-.28.48-.42,1.05-.42,1.7v7.08c0,.64.14,1.21.42,1.69.28.49.78.87,1.48,1.14.7.28,1.68.41,2.93.41s2.25-.13,2.95-.41c.7-.27,1.2-.65,1.49-1.14.29-.48.43-1.05.43-1.69v-7.08c0-.65-.14-1.22-.43-1.7ZM36,18.91c0,.59-.14,1.12-.41,1.57-.27.46-.74.81-1.41,1.06-.68.25-1.61.37-2.81.37s-2.11-.12-2.79-.37c-.67-.25-1.14-.6-1.4-1.06-.26-.45-.4-.98-.4-1.57v-7.08c0-.61.14-1.13.4-1.58s.73-.8,1.4-1.05c.68-.24,1.6-.37,2.79-.37s2.13.13,2.81.37c.67.25,1.14.6,1.41,1.05.27.45.41.97.41,1.58v7.08ZM31.42,11.04c-.87,0-1.42.1-1.66.31-.24.21-.36.47-.36.79v6.46c0,.32.12.59.36.8.24.22.79.33,1.66.33s1.43-.11,1.66-.33c.24-.21.35-.48.35-.8v-6.46c0-.32-.11-.58-.35-.79-.23-.21-.78-.31-1.66-.31ZM30.1,19.32c-.18-.08-.3-.18-.36-.3-.07-.12-.1-.26-.1-.42v-4.54c.18.07.3.16.36.28.06.12.1.26.1.42v4.56ZM35.81,10.13c-.29-.48-.79-.86-1.49-1.13s-1.69-.41-2.95-.41-2.23.14-2.93.41-1.2.65-1.48,1.13c-.28.48-.42,1.05-.42,1.7v7.08c0,.64.14,1.21.42,1.69.28.49.78.87,1.48,1.14.7.28,1.68.41,2.93.41s2.25-.13,2.95-.41c.7-.27,1.2-.65,1.49-1.14.29-.48.43-1.05.43-1.69v-7.08c0-.65-.14-1.22-.43-1.7ZM36,18.91c0,.59-.14,1.12-.41,1.57-.27.46-.74.81-1.41,1.06-.68.25-1.61.37-2.81.37s-2.11-.12-2.79-.37c-.67-.25-1.14-.6-1.4-1.06-.26-.45-.4-.98-.4-1.57v-7.08c0-.61.14-1.13.4-1.58s.73-.8,1.4-1.05c.68-.24,1.6-.37,2.79-.37s2.13.13,2.81.37c.67.25,1.14.6,1.41,1.05.27.45.41.97.41,1.58v7.08ZM31.42,11.04c-.87,0-1.42.1-1.66.31-.24.21-.36.47-.36.79v6.46c0,.32.12.59.36.8.24.22.79.33,1.66.33s1.43-.11,1.66-.33c.24-.21.35-.48.35-.8v-6.46c0-.32-.11-.58-.35-.79-.23-.21-.78-.31-1.66-.31ZM30.1,19.32c-.18-.08-.3-.18-.36-.3-.07-.12-.1-.26-.1-.42v-4.54c.18.07.3.16.36.28.06.12.1.26.1.42v4.56ZM38.77,9.2c-.21-.63-.6-1.18-1.15-1.64s-1.33-.82-2.34-1.07c-1.01-.25-2.3-.37-3.86-.37s-2.9.13-3.9.4c-1,.26-1.78.63-2.34,1.11l-3.12,2.59c-.55.45-.92.99-1.13,1.61-.21.63-.31,1.31-.31,2.07v7.46c0,.75.1,1.48.32,2.18.22.71.6,1.34,1.16,1.89s1.35.99,2.36,1.31c1,.32,2.29.48,3.86.48s2.9-.14,3.9-.4,1.78-.64,2.34-1.12l3.1-2.59c.54-.46.92-1,1.12-1.62.21-.61.32-1.29.32-2.03v-8.18c0-.75-.11-1.44-.33-2.08ZM38.86,19.46c0,.74-.11,1.41-.33,2.01-.21.6-.59,1.11-1.14,1.55-.54.43-1.3.76-2.27.99-.96.23-2.2.35-3.7.35s-2.74-.12-3.71-.35c-.97-.23-1.73-.56-2.27-.99-.54-.44-.93-.95-1.15-1.55-.23-.6-.34-1.27-.34-2.01v-8.18c0-.74.11-1.4.34-2,.22-.6.61-1.12,1.15-1.55s1.3-.77,2.27-1.01c.97-.24,2.2-.36,3.71-.36s2.74.12,3.7.36c.97.24,1.73.58,2.27,1.01.55.43.93.95,1.14,1.55.22.6.33,1.26.33,2v8.18ZM34.32,9c-.7-.27-1.69-.41-2.95-.41s-2.23.14-2.93.41-1.2.65-1.48,1.13c-.28.48-.42,1.05-.42,1.7v7.08c0,.64.14,1.21.42,1.69.28.49.78.87,1.48,1.14.7.28,1.68.41,2.93.41s2.25-.13,2.95-.41c.7-.27,1.2-.65,1.49-1.14.29-.48.43-1.05.43-1.69v-7.08c0-.65-.14-1.22-.43-1.7s-.79-.86-1.49-1.13ZM36,18.91c0,.59-.14,1.12-.41,1.57-.27.46-.74.81-1.41,1.06-.68.25-1.61.37-2.81.37s-2.11-.12-2.79-.37c-.67-.25-1.14-.6-1.4-1.06-.26-.45-.4-.98-.4-1.57v-7.08c0-.61.14-1.13.4-1.58s.73-.8,1.4-1.05c.68-.24,1.6-.37,2.79-.37s2.13.13,2.81.37c.67.25,1.14.6,1.41,1.05.27.45.41.97.41,1.58v7.08ZM31.42,11.04c-.87,0-1.42.1-1.66.31-.24.21-.36.47-.36.79v6.46c0,.32.12.59.36.8.24.22.79.33,1.66.33s1.43-.11,1.66-.33c.24-.21.35-.48.35-.8v-6.46c0-.32-.11-.58-.35-.79-.23-.21-.78-.31-1.66-.31ZM30.1,19.32c-.18-.08-.3-.18-.36-.3-.07-.12-.1-.26-.1-.42v-4.54c.18.07.3.16.36.28.06.12.1.26.1.42v4.56ZM33.08,11.35c-.23-.21-.78-.31-1.66-.31s-1.42.1-1.66.31c-.24.21-.36.47-.36.79v6.46c0,.32.12.59.36.8.24.22.79.33,1.66.33s1.43-.11,1.66-.33c.24-.21.35-.48.35-.8v-6.46c0-.32-.11-.58-.35-.79ZM30.1,19.32c-.18-.08-.3-.18-.36-.3-.07-.12-.1-.26-.1-.42v-4.54c.18.07.3.16.36.28.06.12.1.26.1.42v4.56ZM33.08,11.35c-.23-.21-.78-.31-1.66-.31s-1.42.1-1.66.31c-.24.21-.36.47-.36.79v6.46c0,.32.12.59.36.8.24.22.79.33,1.66.33s1.43-.11,1.66-.33c.24-.21.35-.48.35-.8v-6.46c0-.32-.11-.58-.35-.79ZM30.1,19.32c-.18-.08-.3-.18-.36-.3-.07-.12-.1-.26-.1-.42v-4.54c.18.07.3.16.36.28.06.12.1.26.1.42v4.56ZM35.81,10.13c-.29-.48-.79-.86-1.49-1.13s-1.69-.41-2.95-.41-2.23.14-2.93.41-1.2.65-1.48,1.13c-.28.48-.42,1.05-.42,1.7v7.08c0,.64.14,1.21.42,1.69.28.49.78.87,1.48,1.14.7.28,1.68.41,2.93.41s2.25-.13,2.95-.41c.7-.27,1.2-.65,1.49-1.14.29-.48.43-1.05.43-1.69v-7.08c0-.65-.14-1.22-.43-1.7ZM36,18.91c0,.59-.14,1.12-.41,1.57-.27.46-.74.81-1.41,1.06-.68.25-1.61.37-2.81.37s-2.11-.12-2.79-.37c-.67-.25-1.14-.6-1.4-1.06-.26-.45-.4-.98-.4-1.57v-7.08c0-.61.14-1.13.4-1.58s.73-.8,1.4-1.05c.68-.24,1.6-.37,2.79-.37s2.13.13,2.81.37c.67.25,1.14.6,1.41,1.05.27.45.41.97.41,1.58v7.08ZM31.42,11.04c-.87,0-1.42.1-1.66.31-.24.21-.36.47-.36.79v6.46c0,.32.12.59.36.8.24.22.79.33,1.66.33s1.43-.11,1.66-.33c.24-.21.35-.48.35-.8v-6.46c0-.32-.11-.58-.35-.79-.23-.21-.78-.31-1.66-.31ZM30.1,19.32c-.18-.08-.3-.18-.36-.3-.07-.12-.1-.26-.1-.42v-4.54c.18.07.3.16.36.28.06.12.1.26.1.42v4.56ZM33.08,11.35c-.23-.21-.78-.31-1.66-.31s-1.42.1-1.66.31c-.24.21-.36.47-.36.79v6.46c0,.32.12.59.36.8.24.22.79.33,1.66.33s1.43-.11,1.66-.33c.24-.21.35-.48.35-.8v-6.46c0-.32-.11-.58-.35-.79ZM30.1,19.32c-.18-.08-.3-.18-.36-.3-.07-.12-.1-.26-.1-.42v-4.54c.18.07.3.16.36.28.06.12.1.26.1.42v4.56ZM33.08,11.35c-.23-.21-.78-.31-1.66-.31s-1.42.1-1.66.31c-.24.21-.36.47-.36.79v6.46c0,.32.12.59.36.8.24.22.79.33,1.66.33s1.43-.11,1.66-.33c.24-.21.35-.48.35-.8v-6.46c0-.32-.11-.58-.35-.79ZM30.1,19.32c-.18-.08-.3-.18-.36-.3-.07-.12-.1-.26-.1-.42v-4.54c.18.07.3.16.36.28.06.12.1.26.1.42v4.56ZM35.81,10.13c-.29-.48-.79-.86-1.49-1.13s-1.69-.41-2.95-.41-2.23.14-2.93.41-1.2.65-1.48,1.13c-.28.48-.42,1.05-.42,1.7v7.08c0,.64.14,1.21.42,1.69.28.49.78.87,1.48,1.14.7.28,1.68.41,2.93.41s2.25-.13,2.95-.41c.7-.27,1.2-.65,1.49-1.14.29-.48.43-1.05.43-1.69v-7.08c0-.65-.14-1.22-.43-1.7ZM36,18.91c0,.59-.14,1.12-.41,1.57-.27.46-.74.81-1.41,1.06-.68.25-1.61.37-2.81.37s-2.11-.12-2.79-.37c-.67-.25-1.14-.6-1.4-1.06-.26-.45-.4-.98-.4-1.57v-7.08c0-.61.14-1.13.4-1.58s.73-.8,1.4-1.05c.68-.24,1.6-.37,2.79-.37s2.13.13,2.81.37c.67.25,1.14.6,1.41,1.05.27.45.41.97.41,1.58v7.08ZM31.42,11.04c-.87,0-1.42.1-1.66.31-.24.21-.36.47-.36.79v6.46c0,.32.12.59.36.8.24.22.79.33,1.66.33s1.43-.11,1.66-.33c.24-.21.35-.48.35-.8v-6.46c0-.32-.11-.58-.35-.79-.23-.21-.78-.31-1.66-.31ZM30.1,19.32c-.18-.08-.3-.18-.36-.3-.07-.12-.1-.26-.1-.42v-4.54c.18.07.3.16.36.28.06.12.1.26.1.42v4.56ZM33.08,11.35c-.23-.21-.78-.31-1.66-.31s-1.42.1-1.66.31c-.24.21-.36.47-.36.79v6.46c0,.32.12.59.36.8.24.22.79.33,1.66.33s1.43-.11,1.66-.33c.24-.21.35-.48.35-.8v-6.46c0-.32-.11-.58-.35-.79ZM30.1,19.32c-.18-.08-.3-.18-.36-.3-.07-.12-.1-.26-.1-.42v-4.54c.18.07.3.16.36.28.06.12.1.26.1.42v4.56ZM33.08,11.35c-.23-.21-.78-.31-1.66-.31s-1.42.1-1.66.31c-.24.21-.36.47-.36.79v6.46c0,.32.12.59.36.8.24.22.79.33,1.66.33s1.43-.11,1.66-.33c.24-.21.35-.48.35-.8v-6.46c0-.32-.11-.58-.35-.79ZM30.1,19.32c-.18-.08-.3-.18-.36-.3-.07-.12-.1-.26-.1-.42v-4.54c.18.07.3.16.36.28.06.12.1.26.1.42v4.56Z"/>
    <path class="st0" d="M38.53,9.28c-.21-.6-.59-1.12-1.14-1.55-.54-.43-1.3-.77-2.27-1.01-.96-.24-2.2-.36-3.7-.36s-2.74.12-3.71.36c-.97.24-1.73.58-2.27,1.01s-.93.95-1.15,1.55c-.23.6-.34,1.26-.34,2v8.18c0,.74.11,1.41.34,2.01.22.6.61,1.11,1.15,1.55.54.43,1.3.76,2.27.99.97.23,2.2.35,3.71.35s2.74-.12,3.7-.35c.97-.23,1.73-.56,2.27-.99.55-.44.93-.95,1.14-1.55.22-.6.33-1.27.33-2.01v-8.18c0-.74-.11-1.4-.33-2ZM36.24,18.91c0,.64-.14,1.21-.43,1.69-.29.49-.79.87-1.49,1.14-.7.28-1.69.41-2.95.41s-2.23-.13-2.93-.41c-.7-.27-1.2-.65-1.48-1.14-.28-.48-.42-1.05-.42-1.69v-7.08c0-.65.14-1.22.42-1.7.28-.48.78-.86,1.48-1.13s1.68-.41,2.93-.41,2.25.14,2.95.41,1.2.65,1.49,1.13.43,1.05.43,1.7v7.08Z"/>
    <path class="st0" d="M35.59,10.25c-.27-.45-.74-.8-1.41-1.05-.68-.24-1.61-.37-2.81-.37s-2.11.13-2.79.37c-.67.25-1.14.6-1.4,1.05s-.4.97-.4,1.58v7.08c0,.59.14,1.12.4,1.57.26.46.73.81,1.4,1.06.68.25,1.6.37,2.79.37s2.13-.12,2.81-.37c.67-.25,1.14-.6,1.41-1.06.27-.45.41-.98.41-1.57v-7.08c0-.61-.14-1.13-.41-1.58ZM33.43,18.6c0,.32-.11.59-.35.8-.23.22-.78.33-1.66.33s-1.42-.11-1.66-.33c-.24-.21-.36-.48-.36-.8v-6.46c0-.32.12-.58.36-.79.24-.21.79-.31,1.66-.31s1.43.1,1.66.31c.24.21.35.47.35.79v6.46Z"/>
    <path d="M52.37,11.36c-.15-.21-.43-.32-.84-.32h-1.8v3.07h1.8c.41,0,.69-.11.84-.32.14-.22.21-.49.21-.81v-.81c0-.32-.07-.59-.21-.81ZM52.37,11.36c-.15-.21-.43-.32-.84-.32h-1.8v3.07h1.8c.41,0,.69-.11.84-.32.14-.22.21-.49.21-.81v-.81c0-.32-.07-.59-.21-.81ZM53.93,16.06h-.27c.58-.18.96-.51,1.16-.99.19-.48.28-1.08.28-1.8v-1.65c0-.8-.22-1.46-.66-1.97-.44-.51-1.13-.77-2.07-.77h-5.47v12.96h.24v-5.57h6.79c1.77,0,2.66.79,2.66,2.35v3.22h.24v-3.22c0-1.71-.97-2.56-2.9-2.56ZM47.14,16.06v-6.94h5.23c.85,0,1.47.23,1.88.68.41.46.61,1.06.61,1.82v1.68c0,.88-.16,1.56-.5,2.04-.34.48-1,.72-1.99.72h-5.23ZM51.53,11.04h-1.8v3.07h1.8c.41,0,.69-.11.84-.32.14-.22.21-.49.21-.81v-.81c0-.32-.07-.59-.21-.81-.15-.21-.43-.32-.84-.32ZM53.93,16.06h-.27c.58-.18.96-.51,1.16-.99.19-.48.28-1.08.28-1.8v-1.65c0-.8-.22-1.46-.66-1.97-.44-.51-1.13-.77-2.07-.77h-5.47v12.96h.24v-5.57h6.79c1.77,0,2.66.79,2.66,2.35v3.22h.24v-3.22c0-1.71-.97-2.56-2.9-2.56ZM47.14,16.06v-6.94h5.23c.85,0,1.47.23,1.88.68.41.46.61,1.06.61,1.82v1.68c0,.88-.16,1.56-.5,2.04-.34.48-1,.72-1.99.72h-5.23ZM51.53,11.04h-1.8v3.07h1.8c.41,0,.69-.11.84-.32.14-.22.21-.49.21-.81v-.81c0-.32-.07-.59-.21-.81-.15-.21-.43-.32-.84-.32ZM59,15.7c-.45-.63-1.06-1.04-1.81-1.25h.03c.32-.27.55-.63.69-1.07.15-.44.22-.96.22-1.55v-1.1c0-.83-.15-1.57-.45-2.21-.29-.64-.8-1.14-1.52-1.5-.72-.36-1.72-.54-3-.54h-7.99c-.34,0-.59.07-.77.22l-3.1,2.61c-.22.19-.33.49-.33.89v15.55c0,.74.37,1.11,1.1,1.11h3.7c.33,0,.58-.08.74-.24l3.12-2.6c.23-.19.34-.48.34-.88v-1.85h.02c.26,0,.43.06.53.19.1.13.14.33.14.6v3.67c0,.74.37,1.11,1.11,1.11h3.72c.33,0,.58-.08.74-.24l3.12-2.6c.23-.19.34-.48.34-.88v-5.09c0-.95-.23-1.73-.69-2.35ZM59.45,23.14c0,.57-.29.86-.87.86h-3.72c-.57,0-.86-.29-.86-.86v-3.68c0-.36-.07-.63-.2-.79-.14-.16-.38-.24-.71-.24h-3.36v4.71c0,.57-.29.86-.87.86h-3.69c-.58,0-.87-.29-.87-.86V7.58c0-.57.29-.86.87-.86h7.99c1.2,0,2.14.17,2.83.5.69.34,1.18.81,1.47,1.41.28.6.43,1.3.43,2.1v1.1c0,.67-.1,1.24-.29,1.71-.19.46-.54.8-1.06,1.03.88.09,1.59.45,2.12,1.05.52.61.79,1.42.79,2.43v5.09ZM53.93,16.06h-.27c.58-.18.96-.51,1.16-.99.19-.48.28-1.08.28-1.8v-1.65c0-.8-.22-1.46-.66-1.97-.44-.51-1.13-.77-2.07-.77h-5.47v12.96h.24v-5.57h6.79c1.77,0,2.66.79,2.66,2.35v3.22h.24v-3.22c0-1.71-.97-2.56-2.9-2.56ZM47.14,16.06v-6.94h5.23c.85,0,1.47.23,1.88.68.41.46.61,1.06.61,1.82v1.68c0,.88-.16,1.56-.5,2.04-.34.48-1,.72-1.99.72h-5.23ZM51.53,11.04h-1.8v3.07h1.8c.41,0,.69-.11.84-.32.14-.22.21-.49.21-.81v-.81c0-.32-.07-.59-.21-.81-.15-.21-.43-.32-.84-.32ZM52.37,11.36c-.15-.21-.43-.32-.84-.32h-1.8v3.07h1.8c.41,0,.69-.11.84-.32.14-.22.21-.49.21-.81v-.81c0-.32-.07-.59-.21-.81ZM52.37,11.36c-.15-.21-.43-.32-.84-.32h-1.8v3.07h1.8c.41,0,.69-.11.84-.32.14-.22.21-.49.21-.81v-.81c0-.32-.07-.59-.21-.81ZM53.93,16.06h-.27c.58-.18.96-.51,1.16-.99.19-.48.28-1.08.28-1.8v-1.65c0-.8-.22-1.46-.66-1.97-.44-.51-1.13-.77-2.07-.77h-5.47v12.96h.24v-5.57h6.79c1.77,0,2.66.79,2.66,2.35v3.22h.24v-3.22c0-1.71-.97-2.56-2.9-2.56ZM47.14,16.06v-6.94h5.23c.85,0,1.47.23,1.88.68.41.46.61,1.06.61,1.82v1.68c0,.88-.16,1.56-.5,2.04-.34.48-1,.72-1.99.72h-5.23ZM51.53,11.04h-1.8v3.07h1.8c.41,0,.69-.11.84-.32.14-.22.21-.49.21-.81v-.81c0-.32-.07-.59-.21-.81-.15-.21-.43-.32-.84-.32ZM52.37,11.36c-.15-.21-.43-.32-.84-.32h-1.8v3.07h1.8c.41,0,.69-.11.84-.32.14-.22.21-.49.21-.81v-.81c0-.32-.07-.59-.21-.81ZM52.37,11.36c-.15-.21-.43-.32-.84-.32h-1.8v3.07h1.8c.41,0,.69-.11.84-.32.14-.22.21-.49.21-.81v-.81c0-.32-.07-.59-.21-.81ZM53.93,16.06h-.27c.58-.18.96-.51,1.16-.99.19-.48.28-1.08.28-1.8v-1.65c0-.8-.22-1.46-.66-1.97-.44-.51-1.13-.77-2.07-.77h-5.47v12.96h.24v-5.57h6.79c1.77,0,2.66.79,2.66,2.35v3.22h.24v-3.22c0-1.71-.97-2.56-2.9-2.56ZM47.14,16.06v-6.94h5.23c.85,0,1.47.23,1.88.68.41.46.61,1.06.61,1.82v1.68c0,.88-.16,1.56-.5,2.04-.34.48-1,.72-1.99.72h-5.23ZM51.53,11.04h-1.8v3.07h1.8c.41,0,.69-.11.84-.32.14-.22.21-.49.21-.81v-.81c0-.32-.07-.59-.21-.81-.15-.21-.43-.32-.84-.32ZM52.37,11.36c-.15-.21-.43-.32-.84-.32h-1.8v3.07h1.8c.41,0,.69-.11.84-.32.14-.22.21-.49.21-.81v-.81c0-.32-.07-.59-.21-.81ZM52.37,11.36c-.15-.21-.43-.32-.84-.32h-1.8v3.07h1.8c.41,0,.69-.11.84-.32.14-.22.21-.49.21-.81v-.81c0-.32-.07-.59-.21-.81Z"/>
    <path class="st0" d="M58.66,15.62c-.53-.6-1.24-.96-2.12-1.05.52-.23.87-.57,1.06-1.03.19-.47.29-1.04.29-1.71v-1.1c0-.8-.15-1.5-.43-2.1-.29-.6-.78-1.07-1.47-1.41-.69-.33-1.63-.5-2.83-.5h-7.99c-.58,0-.87.29-.87.86v15.56c0,.57.29.86.87.86h3.69c.58,0,.87-.29.87-.86v-4.71h3.36c.33,0,.57.08.71.24.13.16.2.43.2.79v3.68c0,.57.29.86.86.86h3.72c.58,0,.87-.29.87-.86v-5.09c0-1.01-.27-1.82-.79-2.43ZM56.83,21.84h-.24v-3.22c0-1.56-.89-2.35-2.66-2.35h-6.79v5.57h-.24v-12.96h5.47c.94,0,1.63.26,2.07.77.44.51.66,1.17.66,1.97v1.65c0,.72-.09,1.32-.28,1.8-.2.48-.58.81-1.16.99h.27c1.93,0,2.9.85,2.9,2.56v3.22Z"/>
    <path class="st0" d="M54.25,9.8c-.41-.45-1.03-.68-1.88-.68h-5.23v6.94h5.23c.99,0,1.65-.24,1.99-.72.34-.48.5-1.16.5-2.04v-1.68c0-.76-.2-1.36-.61-1.82ZM52.58,12.98c0,.32-.07.59-.21.81-.15.21-.43.32-.84.32h-1.8v-3.07h1.8c.41,0,.69.11.84.32.14.22.21.49.21.81v.81Z"/>
    <path d="M73.94,9.12v-.24h-7.63v.24h3.72v12.48h-3.72v.24h7.63v-.24h-3.67v-12.48h3.67ZM73.94,9.12v-.24h-7.63v.24h3.72v12.48h-3.72v.24h7.63v-.24h-3.67v-12.48h3.67ZM76.01,11.38c.22-.2.33-.49.33-.89v-2.91c0-.73-.37-1.1-1.1-1.1h-10.22c-.34,0-.6.07-.77.22l-3.1,2.61c-.22.19-.34.49-.34.89v2.9c0,.74.37,1.11,1.11,1.11h2.13v5.35l-2.9,2.45c-.22.19-.34.49-.34.89v2.85c0,.74.37,1.11,1.11,1.11h10.22c.34,0,.59-.08.75-.24l3.12-2.6c.22-.19.33-.48.33-.88v-2.86c0-.74-.37-1.1-1.1-1.1h-2.09v-5.4l2.86-2.4ZM75.24,19.42c.57,0,.86.28.86.86v2.86c0,.57-.29.86-.86.86h-10.22c-.58,0-.87-.29-.87-.86v-2.86c0-.58.29-.86.87-.86h2.37v-8.07h-2.37c-.58,0-.87-.29-.87-.86v-2.91c0-.57.29-.86.87-.86h10.22c.57,0,.86.29.86.86v2.91c0,.57-.29.86-.86.86h-2.33v8.07h2.33ZM73.94,9.12v-.24h-7.63v.24h3.72v12.48h-3.72v.24h7.63v-.24h-3.67v-12.48h3.67Z"/>
    <path class="st0" d="M75.24,11.35c.57,0,.86-.29.86-.86v-2.91c0-.57-.29-.86-.86-.86h-10.22c-.58,0-.87.29-.87.86v2.91c0,.57.29.86.87.86h2.37v8.07h-2.37c-.58,0-.87.28-.87.86v2.86c0,.57.29.86.87.86h10.22c.57,0,.86-.29.86-.86v-2.86c0-.58-.29-.86-.86-.86h-2.33v-8.07h2.33ZM73.94,21.6v.24h-7.63v-.24h3.72v-12.48h-3.72v-.24h7.63v.24h-3.67v12.48h3.67Z"/>
    <path d="M93.46,8.88v10.13l-8.84-9.94c-.14-.14-.26-.21-.36-.21-.19,0-.29.09-.29.28v12.7h.24v-12.65s.02-.07.05-.07.07.02.12.07l9.08,10.18v2.47h.24v-12.96h-.24ZM93.46,8.88v10.13l-8.84-9.94c-.14-.14-.26-.21-.36-.21-.19,0-.29.09-.29.28v12.7h.24v-12.65s.02-.07.05-.07.07.02.12.07l9.08,10.18v2.47h.24v-12.96h-.24ZM95.35,6.48h-3.6c-.33,0-.59.07-.77.22l-2.9,2.42-1.66-1.92c-.43-.48-.96-.72-1.61-.72h-2.49c-.34,0-.59.07-.77.22l-3.09,2.61c-.23.19-.34.49-.34.89v15.55c0,.74.37,1.11,1.1,1.11h3.6c.34,0,.59-.08.75-.24l3.12-2.6c.22-.19.33-.48.33-.88v-.89l.53.65v2.85c0,.74.37,1.11,1.11,1.11h3.59c.34,0,.59-.08.75-.24l3.12-2.6c.22-.19.34-.48.34-.88V7.58c0-.73-.37-1.1-1.11-1.1ZM96.21,23.14c0,.57-.28.86-.86.86h-3.6c-.57,0-.86-.29-.86-.86v-2.96l-4.11-4.96v7.92c0,.57-.28.86-.86.86h-3.6c-.58,0-.86-.29-.86-.86V7.58c0-.57.28-.86.86-.86h2.49c.58,0,1.05.22,1.42.65l4.66,5.33v-5.12c0-.57.29-.86.86-.86h3.6c.58,0,.86.29.86.86v15.56ZM93.46,19.01l-8.84-9.94c-.14-.14-.26-.21-.36-.21-.19,0-.29.09-.29.28v12.7h.24v-12.65s.02-.07.05-.07.07.02.12.07l9.08,10.18v2.47h.24v-12.96h-.24v10.13Z"/>
    <path class="st0" d="M95.35,6.72h-3.6c-.57,0-.86.29-.86.86v5.12l-4.66-5.33c-.37-.43-.84-.65-1.42-.65h-2.49c-.58,0-.86.29-.86.86v15.56c0,.57.28.86.86.86h3.6c.58,0,.86-.29.86-.86v-7.92l4.11,4.96v2.96c0,.57.29.86.86.86h3.6c.58,0,.86-.29.86-.86V7.58c0-.57-.28-.86-.86-.86ZM93.7,21.84h-.24v-2.47l-9.08-10.18s-.09-.07-.12-.07-.05.02-.05.07v12.65h-.24v-12.7c0-.19.1-.28.29-.28.1,0,.22.07.36.21l8.84,9.94v-10.13h.24v12.96Z"/>
    <path d="M113.13,17.02v4.58h-4.53c-1.07,0-1.91-.09-2.5-.28-.59-.18-1-.48-1.23-.91-.24-.42-.35-.98-.35-1.67v-6.72c0-.72.1-1.29.31-1.71.21-.43.57-.73,1.09-.91.52-.19,1.25-.28,2.2-.28h4.15v-.24h-4.15c-1.03,0-1.81.1-2.37.31-.55.21-.93.54-1.15,1-.21.45-.32,1.07-.32,1.83v6.72c0,.74.11,1.34.35,1.79.23.46.66.79,1.28,1,.63.21,1.52.31,2.69.31h4.78v-4.82h-.25ZM113.13,17.02v4.58h-4.53c-1.07,0-1.91-.09-2.5-.28-.59-.18-1-.48-1.23-.91-.24-.42-.35-.98-.35-1.67v-6.72c0-.72.1-1.29.31-1.71.21-.43.57-.73,1.09-.91.52-.19,1.25-.28,2.2-.28h4.15v-.24h-4.15c-1.03,0-1.81.1-2.37.31-.55.21-.93.54-1.15,1-.21.45-.32,1.07-.32,1.83v6.72c0,.74.11,1.34.35,1.79.23.46.66.79,1.28,1,.63.21,1.52.31,2.69.31h4.78v-4.82h-.25ZM115.13,14.62h-3.72c-.34,0-.6.07-.77.21l-3.1,2.62c-.09.09-.16.17-.19.21v-3.45h3.12c.34,0,.58-.08.74-.24l3.12-2.59c.23-.2.34-.49.34-.89v-2.91c0-.73-.37-1.1-1.1-1.1h-6c-2.1,0-3.64.42-4.64,1.25l-3.09,2.61c-1.01.87-1.51,2.16-1.51,3.89v6.77c0,1.15.22,2.17.66,3.05s1.11,1.57,2.01,2.06c.91.5,2.06.75,3.47.75h7.56c.34,0,.59-.08.75-.24l3.11-2.6c.23-.19.34-.48.34-.88v-7.42c0-.74-.37-1.1-1.1-1.1ZM115.99,23.14c0,.57-.29.86-.86.86h-7.56c-2.02,0-3.51-.4-4.47-1.2-.96-.8-1.44-2.03-1.44-3.7v-7.48c0-1.67.48-2.9,1.44-3.7.96-.8,2.45-1.2,4.47-1.2h6c.57,0,.86.29.86.86v2.91c0,.57-.29.86-.86.86h-5c-.97,0-1.46.4-1.46,1.2v5.74c0,.78.37,1.17,1.1,1.17h2.33v-3.74c0-.58.29-.86.87-.86h3.72c.57,0,.86.28.86.86v7.42ZM113.13,21.6h-4.53c-1.07,0-1.91-.09-2.5-.28-.59-.18-1-.48-1.23-.91-.24-.42-.35-.98-.35-1.67v-6.72c0-.72.1-1.29.31-1.71.21-.43.57-.73,1.09-.91.52-.19,1.25-.28,2.2-.28h4.15v-.24h-4.15c-1.03,0-1.81.1-2.37.31-.55.21-.93.54-1.15,1-.21.45-.32,1.07-.32,1.83v6.72c0,.74.11,1.34.35,1.79.23.46.66.79,1.28,1,.63.21,1.52.31,2.69.31h4.78v-4.82h-.25v4.58Z"/>
    <path class="st0" d="M115.13,14.86h-3.72c-.58,0-.87.28-.87.86v3.74h-2.33c-.73,0-1.1-.39-1.1-1.17v-5.74c0-.8.49-1.2,1.46-1.2h5c.57,0,.86-.29.86-.86v-2.91c0-.57-.29-.86-.86-.86h-6c-2.02,0-3.51.4-4.47,1.2-.96.8-1.44,2.03-1.44,3.7v7.48c0,1.67.48,2.9,1.44,3.7.96.8,2.45,1.2,4.47,1.2h7.56c.57,0,.86-.29.86-.86v-7.42c0-.58-.29-.86-.86-.86ZM113.38,21.84h-4.78c-1.17,0-2.06-.1-2.69-.31-.62-.21-1.05-.54-1.28-1-.24-.45-.35-1.05-.35-1.79v-6.72c0-.76.11-1.38.32-1.83.22-.46.6-.79,1.15-1,.56-.21,1.34-.31,2.37-.31h4.15v.24h-4.15c-.95,0-1.68.09-2.2.28-.52.18-.88.48-1.09.91-.21.42-.31.99-.31,1.71v6.72c0,.69.11,1.25.35,1.67.23.43.64.73,1.23.91.59.19,1.43.28,2.5.28h4.53v-4.58h.25v4.82Z"/>
  </g>
</svg>